<svg width="45" height="45" viewBox="0 0 45 45" fill="none" xmlns="http://www.w3.org/2000/svg">
<rect width="45" height="45" rx="5" fill="#016630"/>
<path d="M12.2831 31.8267C11.833 32.333 11.9315 33.1205 12.494 33.5002L15.7193 34.8081C16.1834 35.1221 16.8115 35.0424 17.1866 34.6299L21.49 29.8533L17.7772 25.7329L12.2831 31.8267ZM32.7128 31.8267C32.7128 31.8267 19.0242 16.6108 18.8648 16.353C19.5868 15.9592 20.7493 15.5139 22.4979 15.5139C24.2465 15.5139 25.4091 15.9592 26.131 16.353C25.9763 16.6155 23.5058 19.3812 23.5058 19.3812L27.2139 23.4922L28.8172 21.7109C30.1626 20.2156 30.3782 18.0265 29.3516 16.2967L27.303 12.8514C27.1014 12.5138 26.8389 12.2279 26.5154 12.0076C24.6075 10.7138 20.5431 10.6154 18.4804 12.0076C18.157 12.2279 17.8944 12.5138 17.6929 12.8514L15.649 16.2827C15.5786 16.3999 13.9098 19.1984 16.1881 21.7203L27.8186 34.6252C28.1937 35.0424 28.8218 35.1174 29.2859 34.8034L32.5112 33.4955C33.0691 33.1205 33.1675 32.333 32.7128 31.8267Z" fill="white"/>
</svg>
