<svg width="78" height="89" viewBox="0 0 78 89" fill="none" xmlns="http://www.w3.org/2000/svg">
<path d="M1.05139 77.2325C-0.620171 79.1099 -0.254518 82.0303 1.83493 83.4383L13.8144 88.2882C15.5382 89.4529 17.8714 89.1574 19.2644 87.6277L35.2487 69.9142L21.4583 54.6344L1.05139 77.2325ZM76.9332 77.2325C76.9332 77.2325 26.0899 20.8067 25.4979 19.8507C28.1794 18.3905 32.4976 16.7391 38.9923 16.7391C45.487 16.7391 49.8052 18.3905 52.4866 19.8507C51.912 20.8241 42.7359 31.0802 42.7359 31.0802L56.5088 46.3252L62.4637 39.7196C67.461 34.1744 68.262 26.0565 64.4487 19.6421L56.8396 6.86543C56.0909 5.61385 55.1159 4.55347 53.9144 3.73646C46.8277 -1.06129 31.7314 -1.42634 24.0701 3.73646C22.8687 4.55347 21.8936 5.61385 21.1449 6.86543L13.5533 19.5899C13.2921 20.0245 7.09337 30.4023 15.5556 39.7544L58.755 87.6103C60.1479 89.1574 62.4811 89.4355 64.2049 88.2708L76.1844 83.4209C78.2565 82.0303 78.6221 79.1099 76.9332 77.2325Z" fill="#016630"/>
</svg>
